<mxfile host="app.diagrams.net" modified="2024-06-13T01:56:37.234Z" agent="Mozilla/5.0 (Windows NT 10.0; Win64; x64) AppleWebKit/537.36 (KHTML, like Gecko) Chrome/125.0.0.0 Safari/537.36" version="24.5.4" etag="BCgM6Um-yKW-bILgErZ8" type="github">
  <diagram name="第 1 页" id="C4r60_dPo9FK9pBzc4Br">
    <mxGraphModel>
      <root>
        <mxCell id="0" />
        <mxCell id="1" parent="0" />
      </root>
    </mxGraphModel>
  </diagram>
</mxfile>
